<svg width="135" height="48" viewBox="0 0 135 48" fill="none" xmlns="http://www.w3.org/2000/svg">
<path d="M3.75 16.4104V10.5787H28.8612V16.4104H19.8525V40.2886H12.7732V16.4104H3.75ZM39.5382 40.7093C37.1978 40.7093 35.1862 40.2305 33.5034 39.2731C31.8303 38.306 30.5392 36.9617 29.6301 35.2402C28.7307 33.5091 28.281 31.5023 28.281 29.2199C28.281 26.9278 28.7307 24.9211 29.6301 23.1996C30.5392 21.4685 31.8303 20.1242 33.5034 19.1667C35.1862 18.1996 37.1978 17.716 39.5382 17.716C41.8786 17.716 43.8854 18.1996 45.5585 19.1667C47.2413 20.1242 48.5324 21.4685 49.4318 23.1996C50.3409 24.9211 50.7955 26.9278 50.7955 29.2199C50.7955 31.5023 50.3409 33.5091 49.4318 35.2402C48.5324 36.9617 47.2413 38.306 45.5585 39.2731C43.8854 40.2305 41.8786 40.7093 39.5382 40.7093ZM39.5817 35.3563C40.4328 35.3563 41.1533 35.0952 41.7432 34.5729C42.3332 34.0507 42.7829 33.3253 43.0924 32.3969C43.4115 31.4685 43.5711 30.395 43.5711 29.1764C43.5711 27.9385 43.4115 26.8553 43.0924 25.9269C42.7829 24.9984 42.3332 24.2731 41.7432 23.7509C41.1533 23.2286 40.4328 22.9675 39.5817 22.9675C38.7017 22.9675 37.957 23.2286 37.3477 23.7509C36.7481 24.2731 36.2887 24.9984 35.9695 25.9269C35.6601 26.8553 35.5053 27.9385 35.5053 29.1764C35.5053 30.395 35.6601 31.4685 35.9695 32.3969C36.2887 33.3253 36.7481 34.0507 37.3477 34.5729C37.957 35.0952 38.7017 35.3563 39.5817 35.3563ZM65.411 40.2886H54.4294V10.5787H65.3965C68.4236 10.5787 71.03 11.1735 73.2157 12.363C75.411 13.5429 77.1035 15.2451 78.293 17.4694C79.4826 19.6841 80.0774 22.334 80.0774 25.4191C80.0774 28.5139 79.4826 31.1735 78.293 33.3979C77.1132 35.6222 75.4255 37.3292 73.2302 38.5187C71.0348 39.6986 68.4284 40.2886 65.411 40.2886ZM61.6103 34.1667H65.1354C66.7988 34.1667 68.206 33.8863 69.3569 33.3253C70.5174 32.7547 71.3927 31.8311 71.9826 30.5545C72.5822 29.2683 72.882 27.5565 72.882 25.4191C72.882 23.2818 72.5822 21.5797 71.9826 20.3127C71.383 19.0362 70.4981 18.1174 69.3279 17.5565C68.1673 16.9859 66.736 16.7006 65.0339 16.7006H61.6103V34.1667ZM94.6712 40.7093C92.3308 40.7093 90.3192 40.2305 88.6364 39.2731C86.9633 38.306 85.6722 36.9617 84.7631 35.2402C83.8636 33.5091 83.4139 31.5023 83.4139 29.2199C83.4139 26.9278 83.8636 24.9211 84.7631 23.1996C85.6722 21.4685 86.9633 20.1242 88.6364 19.1667C90.3192 18.1996 92.3308 17.716 94.6712 17.716C97.0116 17.716 99.0184 18.1996 100.692 19.1667C102.374 20.1242 103.665 21.4685 104.565 23.1996C105.474 24.9211 105.928 26.9278 105.928 29.2199C105.928 31.5023 105.474 33.5091 104.565 35.2402C103.665 36.9617 102.374 38.306 100.692 39.2731C99.0184 40.2305 97.0116 40.7093 94.6712 40.7093ZM94.7147 35.3563C95.5658 35.3563 96.2863 35.0952 96.8762 34.5729C97.4662 34.0507 97.9159 33.3253 98.2253 32.3969C98.5445 31.4685 98.7041 30.395 98.7041 29.1764C98.7041 27.9385 98.5445 26.8553 98.2253 25.9269C97.9159 24.9984 97.4662 24.2731 96.8762 23.7509C96.2863 23.2286 95.5658 22.9675 94.7147 22.9675C93.8346 22.9675 93.09 23.2286 92.4807 23.7509C91.8811 24.2731 91.4217 24.9984 91.1025 25.9269C90.793 26.8553 90.6383 27.9385 90.6383 29.1764C90.6383 30.395 90.793 31.4685 91.1025 32.3969C91.4217 33.3253 91.8811 34.0507 92.4807 34.5729C93.09 35.0952 93.8346 35.3563 94.7147 35.3563Z" fill="url(#paint0_linear_19_19)"/>
<path d="M122.978 15.3745L124.567 27.0754L118.447 29.9828L110.551 21.2786C108.3 18.7966 107.397 15.355 108.137 12.0713L109.716 5.0616C109.862 4.41143 110.574 4.07329 111.162 4.37428L117.508 7.6191C120.48 9.13918 122.525 12.0381 122.978 15.3745Z" stroke="url(#paint1_linear_19_19)" stroke-width="2.53496" stroke-linecap="round" stroke-linejoin="round"/>
<path d="M120.604 34.6229C122.042 37.7163 125.821 37.8093 125.821 37.8093C125.821 37.8093 128.161 34.8089 126.723 31.7155" stroke="url(#paint2_linear_19_19)" stroke-width="2.53496" stroke-linecap="round" stroke-linejoin="round"/>
<path d="M112.917 24.1129C109.36 30.5237 115.296 35.2568 115.296 35.2568L118.447 29.9828" stroke="url(#paint3_linear_19_19)" stroke-width="2.53496" stroke-linecap="round" stroke-linejoin="round"/>
<path d="M124.286 18.7115C131.438 20.0342 131.254 27.6747 131.254 27.6747L125.226 26.7619" stroke="url(#paint4_linear_19_19)" stroke-width="2.53496" stroke-linecap="round" stroke-linejoin="round"/>
<path d="M117.193 19.249C115.503 20.0518 113.49 19.3178 112.696 17.6093C111.902 15.9008 112.628 13.865 114.318 13.0622C116.007 12.2593 118.021 12.9934 118.815 14.7018C119.609 16.4103 118.883 18.4461 117.193 19.249Z" stroke="url(#paint5_linear_19_19)" stroke-width="2.53496" stroke-linecap="round" stroke-linejoin="round"/>
<defs>
<linearGradient id="paint0_linear_19_19" x1="32.4903" y1="24.4574" x2="77.487" y2="15.6638" gradientUnits="userSpaceOnUse">
<stop offset="0.196724" stop-color="#A040FA"/>
<stop offset="0.7" stop-color="#6042F4"/>
<stop offset="1" stop-color="#10C8E6"/>
</linearGradient>
<linearGradient id="paint1_linear_19_19" x1="110.273" y1="4.36126" x2="121.71" y2="28.4327" gradientUnits="userSpaceOnUse">
<stop offset="0.2" stop-color="#A141FB"/>
<stop offset="0.7" stop-color="#6042F4"/>
<stop offset="1" stop-color="#10C8E6"/>
</linearGradient>
<linearGradient id="paint2_linear_19_19" x1="123.664" y1="33.1692" x2="125.86" y2="37.7908" gradientUnits="userSpaceOnUse">
<stop offset="0.2" stop-color="#A141FB"/>
<stop offset="0.7" stop-color="#6042F4"/>
<stop offset="1" stop-color="#10C8E6"/>
</linearGradient>
<linearGradient id="paint3_linear_19_19" x1="112.482" y1="24.3197" x2="117.24" y2="34.3331" gradientUnits="userSpaceOnUse">
<stop offset="0.2" stop-color="#A141FB"/>
<stop offset="0.7" stop-color="#6042F4"/>
<stop offset="1" stop-color="#10C8E6"/>
</linearGradient>
<linearGradient id="paint4_linear_19_19" x1="124.721" y1="18.5047" x2="129.479" y2="28.5182" gradientUnits="userSpaceOnUse">
<stop offset="0.2" stop-color="#A141FB"/>
<stop offset="0.7" stop-color="#6042F4"/>
<stop offset="1" stop-color="#10C8E6"/>
</linearGradient>
<linearGradient id="paint5_linear_19_19" x1="114.318" y1="13.0622" x2="117.245" y2="19.2243" gradientUnits="userSpaceOnUse">
<stop offset="0.2" stop-color="#A141FB"/>
<stop offset="0.7" stop-color="#6042F4"/>
<stop offset="1" stop-color="#10C8E6"/>
</linearGradient>
</defs>
</svg>
